%TF.GenerationSoftware,KiCad,Pcbnew,10.0.1*%
%TF.CreationDate,2026-05-05T22:25:15+10:00*%
%TF.ProjectId,led_mat_v1,6c65645f-6d61-4745-9f76-312e6b696361,rev?*%
%TF.SameCoordinates,Original*%
%TF.FileFunction,Paste,Top*%
%TF.FilePolarity,Positive*%
%FSLAX46Y46*%
G04 Gerber Fmt 4.6, Leading zero omitted, Abs format (unit mm)*
G04 Created by KiCad (PCBNEW 10.0.1) date 2026-05-05 22:25:15*
%MOMM*%
%LPD*%
G01*
G04 APERTURE LIST*
G04 Aperture macros list*
%AMRoundRect*
0 Rectangle with rounded corners*
0 $1 Rounding radius*
0 $2 $3 $4 $5 $6 $7 $8 $9 X,Y pos of 4 corners*
0 Add a 4 corners polygon primitive as box body*
4,1,4,$2,$3,$4,$5,$6,$7,$8,$9,$2,$3,0*
0 Add four circle primitives for the rounded corners*
1,1,$1+$1,$2,$3*
1,1,$1+$1,$4,$5*
1,1,$1+$1,$6,$7*
1,1,$1+$1,$8,$9*
0 Add four rect primitives between the rounded corners*
20,1,$1+$1,$2,$3,$4,$5,0*
20,1,$1+$1,$4,$5,$6,$7,0*
20,1,$1+$1,$6,$7,$8,$9,0*
20,1,$1+$1,$8,$9,$2,$3,0*%
G04 Aperture macros list end*
%ADD10RoundRect,0.200000X-0.200000X-0.275000X0.200000X-0.275000X0.200000X0.275000X-0.200000X0.275000X0*%
%ADD11RoundRect,0.200000X0.200000X0.275000X-0.200000X0.275000X-0.200000X-0.275000X0.200000X-0.275000X0*%
%ADD12RoundRect,0.218750X0.218750X0.256250X-0.218750X0.256250X-0.218750X-0.256250X0.218750X-0.256250X0*%
%ADD13RoundRect,0.218750X-0.218750X-0.256250X0.218750X-0.256250X0.218750X0.256250X-0.218750X0.256250X0*%
G04 APERTURE END LIST*
D10*
%TO.C,R7*%
X139637000Y-64058800D03*
X141287000Y-64058800D03*
%TD*%
%TO.C,R10*%
X139637000Y-56286400D03*
X141287000Y-56286400D03*
%TD*%
%TO.C,R11*%
X139637000Y-53289200D03*
X141287000Y-53289200D03*
%TD*%
%TO.C,R5*%
X139637000Y-69037200D03*
X141287000Y-69037200D03*
%TD*%
%TO.C,R6*%
X139637000Y-66700400D03*
X141287000Y-66700400D03*
%TD*%
D11*
%TO.C,R2*%
X141287000Y-76657200D03*
X139637000Y-76657200D03*
%TD*%
D10*
%TO.C,R9*%
X139637000Y-59029600D03*
X141287000Y-59029600D03*
%TD*%
%TO.C,R3*%
X139637000Y-74218800D03*
X141287000Y-74218800D03*
%TD*%
%TO.C,R8*%
X139637000Y-61620400D03*
X141287000Y-61620400D03*
%TD*%
%TO.C,R4*%
X139637000Y-71628000D03*
X141287000Y-71628000D03*
%TD*%
D11*
%TO.C,R1*%
X141287000Y-79298800D03*
X139637000Y-79298800D03*
%TD*%
D12*
%TO.C,D100*%
X189501300Y-59476800D03*
X191076300Y-59476800D03*
%TD*%
%TO.C,D110*%
X189501300Y-89476800D03*
X191076300Y-89476800D03*
%TD*%
%TO.C,D102*%
X189501300Y-65476800D03*
X191076300Y-65476800D03*
%TD*%
%TO.C,D99*%
X189501300Y-56476800D03*
X191076300Y-56476800D03*
%TD*%
%TO.C,D106*%
X189501300Y-77476800D03*
X191076300Y-77476800D03*
%TD*%
%TO.C,D104*%
X189501300Y-71476800D03*
X191076300Y-71476800D03*
%TD*%
%TO.C,D109*%
X189501300Y-86476800D03*
X191076300Y-86476800D03*
%TD*%
%TO.C,D98*%
X189501300Y-53476800D03*
X191076300Y-53476800D03*
%TD*%
%TO.C,D107*%
X189501300Y-80476800D03*
X191076300Y-80476800D03*
%TD*%
%TO.C,D101*%
X189501300Y-62476800D03*
X191076300Y-62476800D03*
%TD*%
D13*
%TO.C,D97*%
X191076300Y-50476800D03*
X189501300Y-50476800D03*
%TD*%
D12*
%TO.C,D105*%
X189501300Y-74476800D03*
X191076300Y-74476800D03*
%TD*%
%TO.C,D103*%
X189501300Y-68476800D03*
X191076300Y-68476800D03*
%TD*%
%TO.C,D108*%
X189501300Y-83476800D03*
X191076300Y-83476800D03*
%TD*%
D13*
%TO.C,D15*%
X153108700Y-56474100D03*
X151533700Y-56474100D03*
%TD*%
%TO.C,D72*%
X187308700Y-68474100D03*
X185733700Y-68474100D03*
%TD*%
%TO.C,D87*%
X153108700Y-74474100D03*
X151533700Y-74474100D03*
%TD*%
%TO.C,D45*%
X175908700Y-62474100D03*
X174333700Y-62474100D03*
%TD*%
%TO.C,D65*%
X160708700Y-68474100D03*
X159133700Y-68474100D03*
%TD*%
%TO.C,D60*%
X187308700Y-65474100D03*
X185733700Y-65474100D03*
%TD*%
%TO.C,D25*%
X145508700Y-59474100D03*
X143933700Y-59474100D03*
%TD*%
%TO.C,D63*%
X153108700Y-68474100D03*
X151533700Y-68474100D03*
%TD*%
%TO.C,D80*%
X172108700Y-71474100D03*
X170533700Y-71474100D03*
%TD*%
%TO.C,D39*%
X153108700Y-62474100D03*
X151533700Y-62474100D03*
%TD*%
%TO.C,D36*%
X187308700Y-59474100D03*
X185733700Y-59474100D03*
%TD*%
%TO.C,D13*%
X145508700Y-56474100D03*
X143933700Y-56474100D03*
%TD*%
%TO.C,D3*%
X153108700Y-53474100D03*
X151533700Y-53474100D03*
%TD*%
%TO.C,D37*%
X145508700Y-62474100D03*
X143933700Y-62474100D03*
%TD*%
%TO.C,D7*%
X168308700Y-53474100D03*
X166733700Y-53474100D03*
%TD*%
%TO.C,D71*%
X183508700Y-68474100D03*
X181933700Y-68474100D03*
%TD*%
%TO.C,D8*%
X172108700Y-53474100D03*
X170533700Y-53474100D03*
%TD*%
%TO.C,D28*%
X156908700Y-59474100D03*
X155333700Y-59474100D03*
%TD*%
%TO.C,D50*%
X149308700Y-65474100D03*
X147733700Y-65474100D03*
%TD*%
%TO.C,D76*%
X156908700Y-71474100D03*
X155333700Y-71474100D03*
%TD*%
%TO.C,D47*%
X183508700Y-62474100D03*
X181933700Y-62474100D03*
%TD*%
D12*
%TO.C,D84*%
X185733700Y-71474100D03*
X187308700Y-71474100D03*
%TD*%
D13*
%TO.C,D96*%
X187308700Y-74474100D03*
X185733700Y-74474100D03*
%TD*%
%TO.C,D32*%
X172108700Y-59474100D03*
X170533700Y-59474100D03*
%TD*%
%TO.C,D33*%
X175908700Y-59474100D03*
X174333700Y-59474100D03*
%TD*%
%TO.C,D14*%
X149308700Y-56474100D03*
X147733700Y-56474100D03*
%TD*%
%TO.C,D46*%
X179708700Y-62474100D03*
X178133700Y-62474100D03*
%TD*%
%TO.C,D19*%
X168308700Y-56474100D03*
X166733700Y-56474100D03*
%TD*%
%TO.C,D91*%
X168308700Y-74474100D03*
X166733700Y-74474100D03*
%TD*%
%TO.C,D61*%
X145508700Y-68474100D03*
X143933700Y-68474100D03*
%TD*%
%TO.C,D4*%
X156908700Y-53474100D03*
X155333700Y-53474100D03*
%TD*%
%TO.C,D22*%
X179708700Y-56474100D03*
X178133700Y-56474100D03*
%TD*%
%TO.C,D74*%
X149308700Y-71474100D03*
X147733700Y-71474100D03*
%TD*%
%TO.C,D64*%
X156908700Y-68474100D03*
X155333700Y-68474100D03*
%TD*%
%TO.C,D48*%
X187308700Y-62474100D03*
X185733700Y-62474100D03*
%TD*%
%TO.C,D26*%
X149308700Y-59474100D03*
X147733700Y-59474100D03*
%TD*%
%TO.C,D83*%
X183508700Y-71474100D03*
X181933700Y-71474100D03*
%TD*%
%TO.C,D53*%
X160708700Y-65474100D03*
X159133700Y-65474100D03*
%TD*%
%TO.C,D52*%
X156908700Y-65474100D03*
X155333700Y-65474100D03*
%TD*%
%TO.C,D6*%
X164508700Y-53474100D03*
X162933700Y-53474100D03*
%TD*%
%TO.C,D31*%
X168308700Y-59474100D03*
X166733700Y-59474100D03*
%TD*%
%TO.C,D12*%
X187308700Y-53474100D03*
X185733700Y-53474100D03*
%TD*%
%TO.C,D21*%
X175908700Y-56474100D03*
X174333700Y-56474100D03*
%TD*%
%TO.C,D51*%
X153108700Y-65474100D03*
X151533700Y-65474100D03*
%TD*%
%TO.C,D35*%
X183508700Y-59474100D03*
X181933700Y-59474100D03*
%TD*%
%TO.C,D78*%
X164508700Y-71474100D03*
X162933700Y-71474100D03*
%TD*%
%TO.C,D57*%
X175908700Y-65474100D03*
X174333700Y-65474100D03*
%TD*%
%TO.C,D69*%
X175908700Y-68474100D03*
X174333700Y-68474100D03*
%TD*%
%TO.C,D90*%
X164508700Y-74474100D03*
X162933700Y-74474100D03*
%TD*%
%TO.C,D16*%
X156908700Y-56474100D03*
X155333700Y-56474100D03*
%TD*%
%TO.C,D67*%
X168308700Y-68474100D03*
X166733700Y-68474100D03*
%TD*%
%TO.C,D18*%
X164508700Y-56474100D03*
X162933700Y-56474100D03*
%TD*%
%TO.C,D55*%
X168308700Y-65474100D03*
X166733700Y-65474100D03*
%TD*%
%TO.C,D30*%
X164508700Y-59474100D03*
X162933700Y-59474100D03*
%TD*%
%TO.C,D23*%
X183508700Y-56474100D03*
X181933700Y-56474100D03*
%TD*%
%TO.C,D66*%
X164508700Y-68474100D03*
X162933700Y-68474100D03*
%TD*%
%TO.C,D5*%
X160708700Y-53474100D03*
X159133700Y-53474100D03*
%TD*%
%TO.C,D27*%
X153108700Y-59474100D03*
X151533700Y-59474100D03*
%TD*%
%TO.C,D2*%
X149308700Y-53474100D03*
X147733700Y-53474100D03*
%TD*%
%TO.C,D41*%
X160708700Y-62474100D03*
X159133700Y-62474100D03*
%TD*%
%TO.C,D20*%
X172108700Y-56474100D03*
X170533700Y-56474100D03*
%TD*%
%TO.C,D24*%
X187308700Y-56474100D03*
X185733700Y-56474100D03*
%TD*%
%TO.C,D43*%
X168308700Y-62474100D03*
X166733700Y-62474100D03*
%TD*%
%TO.C,D73*%
X145508700Y-71474100D03*
X143933700Y-71474100D03*
%TD*%
%TO.C,D59*%
X183508700Y-65474100D03*
X181933700Y-65474100D03*
%TD*%
%TO.C,D54*%
X164508700Y-65474100D03*
X162933700Y-65474100D03*
%TD*%
%TO.C,D58*%
X179708700Y-65474100D03*
X178133700Y-65474100D03*
%TD*%
%TO.C,D94*%
X179708700Y-74474100D03*
X178133700Y-74474100D03*
%TD*%
%TO.C,D77*%
X160708700Y-71474100D03*
X159133700Y-71474100D03*
%TD*%
%TO.C,D89*%
X160708700Y-74474100D03*
X159133700Y-74474100D03*
%TD*%
%TO.C,D11*%
X183508700Y-53474100D03*
X181933700Y-53474100D03*
%TD*%
%TO.C,D92*%
X172108700Y-74474100D03*
X170533700Y-74474100D03*
%TD*%
%TO.C,D70*%
X179708700Y-68474100D03*
X178133700Y-68474100D03*
%TD*%
%TO.C,D93*%
X175908700Y-74474100D03*
X174333700Y-74474100D03*
%TD*%
%TO.C,D42*%
X164508700Y-62474100D03*
X162933700Y-62474100D03*
%TD*%
%TO.C,D85*%
X145508700Y-74474100D03*
X143933700Y-74474100D03*
%TD*%
%TO.C,D68*%
X172108700Y-68474100D03*
X170533700Y-68474100D03*
%TD*%
%TO.C,D62*%
X149308700Y-68474100D03*
X147733700Y-68474100D03*
%TD*%
%TO.C,D86*%
X149308700Y-74474100D03*
X147733700Y-74474100D03*
%TD*%
%TO.C,D81*%
X175908700Y-71474100D03*
X174333700Y-71474100D03*
%TD*%
%TO.C,D17*%
X160708700Y-56474100D03*
X159133700Y-56474100D03*
%TD*%
%TO.C,D75*%
X153108700Y-71474100D03*
X151533700Y-71474100D03*
%TD*%
%TO.C,D79*%
X168308700Y-71474100D03*
X166733700Y-71474100D03*
%TD*%
%TO.C,D38*%
X149308700Y-62474100D03*
X147733700Y-62474100D03*
%TD*%
%TO.C,D9*%
X175908700Y-53474100D03*
X174333700Y-53474100D03*
%TD*%
%TO.C,D29*%
X160708700Y-59474100D03*
X159133700Y-59474100D03*
%TD*%
%TO.C,D40*%
X156908700Y-62474100D03*
X155333700Y-62474100D03*
%TD*%
%TO.C,D34*%
X179708700Y-59474100D03*
X178133700Y-59474100D03*
%TD*%
%TO.C,D1*%
X145508700Y-53474100D03*
X143933700Y-53474100D03*
%TD*%
%TO.C,D44*%
X172108700Y-62474100D03*
X170533700Y-62474100D03*
%TD*%
%TO.C,D49*%
X145508700Y-65474100D03*
X143933700Y-65474100D03*
%TD*%
%TO.C,D88*%
X156908700Y-74474100D03*
X155333700Y-74474100D03*
%TD*%
%TO.C,D56*%
X172108700Y-65474100D03*
X170533700Y-65474100D03*
%TD*%
%TO.C,D10*%
X179708700Y-53474100D03*
X178133700Y-53474100D03*
%TD*%
%TO.C,D82*%
X179708700Y-71474100D03*
X178133700Y-71474100D03*
%TD*%
%TO.C,D95*%
X183508700Y-74474100D03*
X181933700Y-74474100D03*
%TD*%
M02*
