M48
; DRILL file KiCad 10.0.1 date 2026-05-05T22:25:15
; FORMAT={-:-/ absolute / inch / decimal}
; #@! TF.CreationDate,2026-05-05T22:25:15+10:00
; #@! TF.GenerationSoftware,Kicad,Pcbnew,10.0.1
; #@! TF.FileFunction,Plated,1,2,PTH
FMAT,2
INCH
; #@! TA.AperFunction,Plated,PTH,ViaDrill
T1C0.0118
; #@! TA.AperFunction,Plated,PTH,ComponentDrill
T2C0.0394
%
G90
G05
T1
X5.5273Y-2.9882
X5.5579Y-2.574
X5.5979Y-2.2548
X5.5991Y-2.2896
X5.6746Y-2.5073
X5.6814Y-2.2929
X5.7055Y-2.1498
X5.7303Y-2.5187
X5.7665Y-2.8878
X5.7725Y-2.6692
X5.7831Y-2.3753
X5.8134Y-2.7659
X5.826Y-2.4173
X5.9147Y-2.6599
X5.9152Y-2.3099
X5.928Y-2.9321
X5.9282Y-2.576
X5.9284Y-2.1205
X5.9415Y-2.4016
X6.052Y-2.8621
X6.0886Y-2.3883
X6.1183Y-2.7571
X6.1483Y-2.1363
X6.1484Y-2.4902
X6.2134Y-2.4208
X6.2147Y-2.2324
X6.2178Y-2.1035
X6.2294Y-2.4951
X6.2666Y-2.7752
X6.2709Y-2.4204
X6.3099Y-2.0569
X6.3499Y-2.6285
X6.3529Y-2.1893
X6.3747Y-2.5733
X6.3768Y-2.1242
X6.4195Y-2.4211
X6.463Y-2.8925
X6.4777Y-2.4175
X6.5028Y-2.1685
X6.5048Y-2.8772
X6.5177Y-2.3025
X6.5267Y-2.4596
X6.5597Y-2.1446
X6.6069Y-2.2627
X6.6692Y-2.1802
X6.6707Y-2.8966
X6.6833Y-2.3705
X6.6955Y-2.6267
X6.7059Y-2.7344
X6.7272Y-2.8526
X6.8046Y-2.6652
X6.8398Y-2.7325
X6.8614Y-2.8602
X6.9369Y-1.9868
X6.9581Y-2.6169
X6.963Y-2.568
X6.974Y-2.7264
X6.978Y-2.254
X6.9863Y-2.5356
X7.0566Y-2.7353
X7.0698Y-2.6411
X7.0902Y-2.4006
X7.1131Y-2.4694
X7.1285Y-2.6423
X7.1385Y-2.7507
X7.1803Y-2.9706
X7.2036Y-2.4149
X7.2091Y-2.885
X7.2248Y-2.381
X7.2562Y-2.0617
X7.2635Y-2.4571
X7.3627Y-2.8566
X7.3756Y-2.1443
X7.3867Y-2.6563
X7.4156Y-2.5825
X7.4414Y-2.9817
X7.446Y-2.5349
X7.4608Y-2.4989
X7.493Y-2.1351
X7.4931Y-3.1979
X7.5054Y-3.4554
X7.525Y-3.2475
T2
X4.43Y-2.142
X4.43Y-2.242
X4.43Y-2.342
X4.43Y-2.442
X4.43Y-2.542
X4.43Y-2.642
X4.43Y-2.742
X4.43Y-2.842
X4.43Y-2.942
X4.43Y-3.042
X4.43Y-3.142
X4.43Y-3.242
X4.43Y-3.342
X4.43Y-3.442
X4.43Y-3.542
X4.5973Y-2.1393
X4.5973Y-2.2393
X4.5973Y-2.3393
X4.5973Y-2.4393
X4.5973Y-2.5393
X4.5973Y-2.6393
X4.5973Y-2.7393
X4.5973Y-2.8393
X4.5973Y-2.9393
X4.5973Y-3.0393
X4.5973Y-3.1393
X4.5973Y-3.2393
X4.5973Y-3.3393
X4.5973Y-3.4393
X4.5973Y-3.5393
X5.1973Y-2.1393
X5.1973Y-2.2393
X5.1973Y-2.3393
X5.1973Y-2.4393
X5.1973Y-2.5393
X5.1973Y-2.6393
X5.1973Y-2.7393
X5.1973Y-2.8393
X5.1973Y-2.9393
X5.1973Y-3.0393
X5.1973Y-3.1393
X5.1973Y-3.2393
X5.1973Y-3.3393
X5.1973Y-3.4393
X5.1973Y-3.5393
X5.3693Y-2.142
X5.3693Y-2.242
X5.3693Y-2.342
X5.3693Y-2.442
X5.3693Y-2.542
X5.3693Y-2.642
X5.3693Y-2.742
X5.3693Y-2.842
X5.3693Y-2.942
X5.3693Y-3.042
X5.3693Y-3.142
X5.3693Y-3.242
X5.3693Y-3.342
X5.3693Y-3.442
X5.3693Y-3.542
M30
