%TF.GenerationSoftware,KiCad,Pcbnew,10.0.1*%
%TF.CreationDate,2026-05-05T22:25:15+10:00*%
%TF.ProjectId,led_mat_v1,6c65645f-6d61-4745-9f76-312e6b696361,rev?*%
%TF.SameCoordinates,Original*%
%TF.FileFunction,Copper,L2,Bot*%
%TF.FilePolarity,Positive*%
%FSLAX46Y46*%
G04 Gerber Fmt 4.6, Leading zero omitted, Abs format (unit mm)*
G04 Created by KiCad (PCBNEW 10.0.1) date 2026-05-05 22:25:15*
%MOMM*%
%LPD*%
G01*
G04 APERTURE LIST*
%TA.AperFunction,ComponentPad*%
%ADD10R,1.600000X1.600000*%
%TD*%
%TA.AperFunction,ComponentPad*%
%ADD11O,1.600000X1.600000*%
%TD*%
%TA.AperFunction,ComponentPad*%
%ADD12R,1.700000X1.700000*%
%TD*%
%TA.AperFunction,ComponentPad*%
%ADD13C,1.700000*%
%TD*%
%TA.AperFunction,ViaPad*%
%ADD14C,0.600000*%
%TD*%
%TA.AperFunction,Conductor*%
%ADD15C,0.200000*%
%TD*%
G04 APERTURE END LIST*
D10*
%TO.P,A1,1,TX1_1*%
%TO.N,/~D0{slash}TX*%
X132011200Y-89897600D03*
D11*
%TO.P,A1,2,RX1_2*%
%TO.N,/~D1{slash}RX*%
X132011200Y-87357600D03*
%TO.P,A1,3,~{RESET}_3*%
%TO.N,/RESET*%
X132011200Y-84817600D03*
%TO.P,A1,4,GND_4*%
%TO.N,GND*%
X132011200Y-82277600D03*
%TO.P,A1,5,D2_5*%
%TO.N,Row 1*%
X132011200Y-79737600D03*
%TO.P,A1,6,D3_6*%
%TO.N,Row 2*%
X132011200Y-77197600D03*
%TO.P,A1,7,D4_7*%
%TO.N,Row 3*%
X132011200Y-74657600D03*
%TO.P,A1,8,D5_8*%
%TO.N,Row 4*%
X132011200Y-72117600D03*
%TO.P,A1,9,D6_9*%
%TO.N,Row 5*%
X132011200Y-69577600D03*
%TO.P,A1,10,D7_10*%
%TO.N,Row 6*%
X132011200Y-67037600D03*
%TO.P,A1,11,D8_11*%
%TO.N,Row 7*%
X132011200Y-64497600D03*
%TO.P,A1,12,D9_12*%
%TO.N,Row 8*%
X132011200Y-61957600D03*
%TO.P,A1,13,D10_13*%
%TO.N,Row 9*%
X132011200Y-59417600D03*
%TO.P,A1,14,MOSI_14*%
%TO.N,Row 10*%
X132011200Y-56877600D03*
%TO.P,A1,15,MISO_15*%
%TO.N,Row 11*%
X132011200Y-54337600D03*
%TO.P,A1,16,SCK_16*%
%TO.N,/D13*%
X116771200Y-54337600D03*
%TO.P,A1,17,3V3_17*%
%TO.N,/3V3*%
X116771200Y-56877600D03*
%TO.P,A1,18,AREF_18*%
%TO.N,/AREF*%
X116771200Y-59417600D03*
%TO.P,A1,19,A0_19*%
%TO.N,/A0{slash}~D14*%
X116771200Y-61957600D03*
%TO.P,A1,20,A1_20*%
%TO.N,/A1{slash}~D15*%
X116771200Y-64497600D03*
%TO.P,A1,21,A2_21*%
%TO.N,/A2{slash}~D16*%
X116771200Y-67037600D03*
%TO.P,A1,22,A3_22*%
%TO.N,/A3{slash}~D17*%
X116771200Y-69577600D03*
%TO.P,A1,23,SDA/A4_23*%
%TO.N,/A4{slash}D~18*%
X116771200Y-72117600D03*
%TO.P,A1,24,SCL/A5_24*%
%TO.N,/A5{slash}~D19*%
X116771200Y-74657600D03*
%TO.P,A1,25,A6_25*%
%TO.N,/A6{slash}~D20*%
X116771200Y-77197600D03*
%TO.P,A1,26,A7_26*%
%TO.N,/A7{slash}~D21*%
X116771200Y-79737600D03*
%TO.P,A1,27,+5V_27*%
%TO.N,/5V OUT*%
X116771200Y-82277600D03*
%TO.P,A1,28,~{RESET}_28*%
%TO.N,/RESET*%
X116771200Y-84817600D03*
%TO.P,A1,29,GND_29*%
%TO.N,GND*%
X116771200Y-87357600D03*
%TO.P,A1,30,VIN_30*%
%TO.N,/VIN*%
X116771200Y-89897600D03*
%TD*%
D12*
%TO.P,J1,1,Pin_1_1*%
%TO.N,/D13*%
X112522000Y-54406800D03*
D13*
%TO.P,J1,2,Pin_2_2*%
%TO.N,/3V3*%
X112522000Y-56946800D03*
%TO.P,J1,3,Pin_3_3*%
%TO.N,/AREF*%
X112522000Y-59486800D03*
%TO.P,J1,4,Pin_4_4*%
%TO.N,/A0{slash}~D14*%
X112522000Y-62026800D03*
%TO.P,J1,5,Pin_5_5*%
%TO.N,/A1{slash}~D15*%
X112522000Y-64566800D03*
%TO.P,J1,6,Pin_6_6*%
%TO.N,/A2{slash}~D16*%
X112522000Y-67106800D03*
%TO.P,J1,7,Pin_7_7*%
%TO.N,/A3{slash}~D17*%
X112522000Y-69646800D03*
%TO.P,J1,8,Pin_8_8*%
%TO.N,/A4{slash}D~18*%
X112522000Y-72186800D03*
%TO.P,J1,9,Pin_9_9*%
%TO.N,/A5{slash}~D19*%
X112522000Y-74726800D03*
%TO.P,J1,10,Pin_10_10*%
%TO.N,/A6{slash}~D20*%
X112522000Y-77266800D03*
%TO.P,J1,11,Pin_11_11*%
%TO.N,/A7{slash}~D21*%
X112522000Y-79806800D03*
%TO.P,J1,12,Pin_12_12*%
%TO.N,/5V OUT*%
X112522000Y-82346800D03*
%TO.P,J1,13,Pin_13_13*%
%TO.N,/RESET*%
X112522000Y-84886800D03*
%TO.P,J1,14,Pin_14_14*%
%TO.N,GND*%
X112522000Y-87426800D03*
%TO.P,J1,15,Pin_15_15*%
%TO.N,/VIN*%
X112522000Y-89966800D03*
%TD*%
D12*
%TO.P,J2,1,Pin_1_1*%
%TO.N,Row 11*%
X136380500Y-54406800D03*
D13*
%TO.P,J2,2,Pin_2_2*%
%TO.N,Row 10*%
X136380500Y-56946800D03*
%TO.P,J2,3,Pin_3_3*%
%TO.N,Row 9*%
X136380500Y-59486800D03*
%TO.P,J2,4,Pin_4_4*%
%TO.N,Row 8*%
X136380500Y-62026800D03*
%TO.P,J2,5,Pin_5_5*%
%TO.N,Row 7*%
X136380500Y-64566800D03*
%TO.P,J2,6,Pin_6_6*%
%TO.N,Row 6*%
X136380500Y-67106800D03*
%TO.P,J2,7,Pin_7_7*%
%TO.N,Row 5*%
X136380500Y-69646800D03*
%TO.P,J2,8,Pin_8_8*%
%TO.N,Row 4*%
X136380500Y-72186800D03*
%TO.P,J2,9,Pin_9_9*%
%TO.N,Row 3*%
X136380500Y-74726800D03*
%TO.P,J2,10,Pin_10_10*%
%TO.N,Row 2*%
X136380500Y-77266800D03*
%TO.P,J2,11,Pin_11_11*%
%TO.N,Row 1*%
X136380500Y-79806800D03*
%TO.P,J2,12,Pin_12_12*%
%TO.N,GND*%
X136380500Y-82346800D03*
%TO.P,J2,13,Pin_13_13*%
%TO.N,/RESET*%
X136380500Y-84886800D03*
%TO.P,J2,14,Pin_14_14*%
%TO.N,/~D1{slash}RX*%
X136380500Y-87426800D03*
%TO.P,J2,15,Pin_15_15*%
%TO.N,/~D0{slash}TX*%
X136380500Y-89966800D03*
%TD*%
D14*
%TO.N,Net-(D1-K)*%
X163056400Y-61495200D03*
X161364500Y-55607100D03*
X189128800Y-64386900D03*
X187339200Y-54466300D03*
X160271100Y-52244000D03*
X167814400Y-57472900D03*
X150234600Y-67562300D03*
X142217600Y-58155200D03*
X140393000Y-75901200D03*
X169434700Y-73572700D03*
%TO.N,Net-(D103-K)*%
X165777800Y-62474100D03*
X165549600Y-58484200D03*
X161287800Y-66763700D03*
X150245800Y-58670500D03*
X144919900Y-54603900D03*
X177240000Y-57251600D03*
X181317700Y-69868000D03*
%TO.N,Net-(D109-K)*%
X166615700Y-54473900D03*
X144307700Y-58240700D03*
X150915300Y-60999800D03*
X174280000Y-72648600D03*
X170329900Y-69453000D03*
X176859300Y-65227600D03*
X157854000Y-56701800D03*
%TO.N,Net-(D108-K)*%
X191134300Y-82486800D03*
X190322100Y-54231000D03*
X147661400Y-70255100D03*
X147979300Y-61398200D03*
X177451200Y-64403500D03*
X187622700Y-67469500D03*
%TO.N,Net-(D104-K)*%
X187013700Y-72558400D03*
X183508700Y-60476600D03*
X161916900Y-65362800D03*
X157820500Y-61489000D03*
X150582500Y-53861300D03*
X164532800Y-61404600D03*
%TO.N,Net-(D106-K)*%
X189010400Y-75734900D03*
X188356600Y-65594600D03*
X180672400Y-62722600D03*
X165169900Y-55080400D03*
X146470100Y-73350300D03*
X141171600Y-65379600D03*
X180090700Y-60974500D03*
X181064600Y-67114300D03*
%TO.N,Net-(D107-K)*%
X190324000Y-81227500D03*
X179237000Y-69476200D03*
X170065400Y-66719000D03*
X146621200Y-67798200D03*
X146890900Y-60332200D03*
X182970500Y-61339500D03*
X150570500Y-74474100D03*
X161971400Y-53955700D03*
X144135400Y-63684300D03*
X172837300Y-67695700D03*
X159170900Y-70490000D03*
X177140800Y-69251600D03*
X176735400Y-66468900D03*
%TO.N,Net-(D1-A)*%
X165221200Y-73079800D03*
X158227700Y-63376000D03*
X169756100Y-60211100D03*
X157932400Y-53429300D03*
X189503900Y-63471200D03*
X184307500Y-52367700D03*
X176197900Y-50465300D03*
%TO.N,Net-(D10-K)*%
X142186500Y-57272600D03*
X150577300Y-65430300D03*
X154650300Y-60662900D03*
X164159400Y-73470500D03*
%TO.N,Net-(D100-A)*%
X190637400Y-87766800D03*
X182379900Y-75452100D03*
X173730700Y-69405500D03*
X145549000Y-63974100D03*
X170871400Y-72457300D03*
X179572600Y-67084500D03*
X169398900Y-55376900D03*
%TO.N,Net-(D105-K)*%
X156167800Y-54263000D03*
X159281400Y-61478900D03*
X156169400Y-63251600D03*
X155404400Y-70029200D03*
X153720000Y-72698000D03*
X183111200Y-73279100D03*
X184492600Y-62411300D03*
%TD*%
%TO.N,GND*%
D15*
X125829500Y-87357600D02*
X116771200Y-87357600D01*
X130909500Y-82277600D02*
X125829500Y-87357600D01*
X132011200Y-82277600D02*
X130909500Y-82277600D01*
%TO.N,Net-(D1-K)*%
X161364500Y-59803300D02*
X163056400Y-61495200D01*
X161364500Y-55607100D02*
X161364500Y-59803300D01*
X163056400Y-59489900D02*
X163056400Y-61495200D01*
X165123600Y-57422700D02*
X163056400Y-59489900D01*
X167764200Y-57422700D02*
X165123600Y-57422700D01*
X167814400Y-57472900D02*
X167764200Y-57422700D01*
X142217600Y-58155300D02*
X142217600Y-58155200D01*
X143743100Y-59680800D02*
X142217600Y-58155300D01*
X147131000Y-59680800D02*
X143743100Y-59680800D01*
X149060000Y-61609800D02*
X147131000Y-59680800D01*
X149060000Y-66387700D02*
X149060000Y-61609800D01*
X150234600Y-67562300D02*
X149060000Y-66387700D01*
X187339200Y-62597300D02*
X189128800Y-64386900D01*
X187339200Y-54466300D02*
X187339200Y-62597300D01*
X140393000Y-59979800D02*
X140393000Y-75901200D01*
X142217600Y-58155200D02*
X140393000Y-59979800D01*
X167875100Y-57472900D02*
X167814400Y-57472900D01*
X170361700Y-59959500D02*
X167875100Y-57472900D01*
X170361700Y-62683600D02*
X170361700Y-59959500D01*
X169434700Y-63610600D02*
X170361700Y-62683600D01*
X169434700Y-73572700D02*
X169434700Y-63610600D01*
X161364500Y-53337400D02*
X160271100Y-52244000D01*
X161364500Y-55607100D02*
X161364500Y-53337400D01*
%TO.N,Net-(D103-K)*%
X161287800Y-66763700D02*
X161877200Y-66174300D01*
X162077600Y-66174300D02*
X161877200Y-66174300D01*
X165777800Y-62474100D02*
X162077600Y-66174300D01*
X153553700Y-58670500D02*
X150245800Y-58670500D01*
X156975900Y-62092700D02*
X153553700Y-58670500D01*
X157795600Y-62092700D02*
X156975900Y-62092700D01*
X161877200Y-66174300D02*
X157795600Y-62092700D01*
X165777800Y-58712400D02*
X165549600Y-58484200D01*
X165777800Y-62474100D02*
X165777800Y-58712400D01*
X143221000Y-56302800D02*
X144919900Y-54603900D01*
X143221000Y-58022600D02*
X143221000Y-56302800D01*
X144075800Y-58877400D02*
X143221000Y-58022600D01*
X147791100Y-58877400D02*
X144075800Y-58877400D01*
X150515300Y-61601600D02*
X147791100Y-58877400D01*
X151227600Y-61601600D02*
X150515300Y-61601600D01*
X151571800Y-61257400D02*
X151227600Y-61601600D01*
X151571800Y-59996500D02*
X151571800Y-61257400D01*
X150245800Y-58670500D02*
X151571800Y-59996500D01*
X171206100Y-51217700D02*
X177240000Y-57251600D01*
X148306100Y-51217700D02*
X171206100Y-51217700D01*
X144919900Y-54603900D02*
X148306100Y-51217700D01*
X181666300Y-61677900D02*
X177240000Y-57251600D01*
X181666300Y-69519400D02*
X181666300Y-61677900D01*
X181317700Y-69868000D02*
X181666300Y-69519400D01*
%TO.N,Net-(D109-K)*%
X171859100Y-70227800D02*
X171859200Y-70227700D01*
X171104700Y-70227800D02*
X171859100Y-70227800D01*
X170329900Y-69453000D02*
X171104700Y-70227800D01*
X171859200Y-70227700D02*
X176859300Y-65227600D01*
X171859200Y-70227700D02*
X174280000Y-72648600D01*
X164844300Y-54473900D02*
X164276600Y-55041600D01*
X166615700Y-54473900D02*
X164844300Y-54473900D01*
X148297900Y-58240700D02*
X144307700Y-58240700D01*
X148297900Y-58382400D02*
X150915300Y-60999800D01*
X148297900Y-58240700D02*
X148297900Y-58382400D01*
X150322900Y-53255300D02*
X155539700Y-53255300D01*
X148297900Y-55280300D02*
X150322900Y-53255300D01*
X148297900Y-58240700D02*
X148297900Y-55280300D01*
X157152900Y-51642100D02*
X155539700Y-53255300D01*
X160521800Y-51642100D02*
X157152900Y-51642100D01*
X163921400Y-55041700D02*
X160521800Y-51642100D01*
X164276500Y-55041700D02*
X163921400Y-55041700D01*
X164276600Y-55041600D02*
X164276500Y-55041700D01*
X157731400Y-56701800D02*
X157854000Y-56701800D01*
X155539700Y-54510100D02*
X157731400Y-56701800D01*
X155539700Y-53255300D02*
X155539700Y-54510100D01*
X165010600Y-55775700D02*
X164276600Y-55041600D01*
X167596700Y-55775700D02*
X165010600Y-55775700D01*
X171165100Y-59344100D02*
X167596700Y-55775700D01*
X171165100Y-59533400D02*
X171165100Y-59344100D01*
X176859300Y-65227600D02*
X171165100Y-59533400D01*
%TO.N,Net-(D108-K)*%
X147979300Y-69937200D02*
X147661400Y-70255100D01*
X147979300Y-61398200D02*
X147979300Y-69937200D01*
X191134300Y-82034500D02*
X191134300Y-82486800D01*
X190931200Y-81831400D02*
X191134300Y-82034500D01*
X190322100Y-76348900D02*
X190322100Y-54231000D01*
X190931200Y-76958000D02*
X190322100Y-76348900D01*
X190931200Y-81831400D02*
X190931200Y-76958000D01*
X187622700Y-75262100D02*
X187622700Y-67469500D01*
X188709500Y-76348900D02*
X187622700Y-75262100D01*
X190322100Y-76348900D02*
X188709500Y-76348900D01*
X177889700Y-64842000D02*
X177451200Y-64403500D01*
X177889700Y-69644000D02*
X177889700Y-64842000D01*
X190077100Y-81831400D02*
X177889700Y-69644000D01*
X190931200Y-81831400D02*
X190077100Y-81831400D01*
%TO.N,Net-(D104-K)*%
X187013700Y-63981600D02*
X183508700Y-60476600D01*
X187013700Y-72558400D02*
X187013700Y-63981600D01*
X161694300Y-65362800D02*
X157820500Y-61489000D01*
X161916900Y-65362800D02*
X161694300Y-65362800D01*
X164532800Y-62746900D02*
X164532800Y-61404600D01*
X161916900Y-65362800D02*
X164532800Y-62746900D01*
X157820500Y-61099300D02*
X150582500Y-53861300D01*
X157820500Y-61489000D02*
X157820500Y-61099300D01*
%TO.N,Net-(D106-K)*%
X188356600Y-75081100D02*
X188356600Y-65594600D01*
X189010400Y-75734900D02*
X188356600Y-75081100D01*
X141171600Y-68051800D02*
X146470100Y-73350300D01*
X141171600Y-65379600D02*
X141171600Y-68051800D01*
X180672400Y-61556200D02*
X180090700Y-60974500D01*
X180672400Y-62722600D02*
X180672400Y-61556200D01*
X168844600Y-55080400D02*
X165169900Y-55080400D01*
X169149800Y-54775200D02*
X168844600Y-55080400D01*
X173891400Y-54775200D02*
X169149800Y-54775200D01*
X180090700Y-60974500D02*
X173891400Y-54775200D01*
X180672400Y-66722100D02*
X180672400Y-62722600D01*
X181064600Y-67114300D02*
X180672400Y-66722100D01*
%TO.N,Net-(D107-K)*%
X146621200Y-70524800D02*
X150570500Y-74474100D01*
X146621200Y-67798200D02*
X146621200Y-70524800D01*
X144455000Y-63364700D02*
X146621200Y-63364700D01*
X144135400Y-63684300D02*
X144455000Y-63364700D01*
X146621200Y-67798200D02*
X146621200Y-63364700D01*
X146621200Y-60601900D02*
X146890900Y-60332200D01*
X146621200Y-63364700D02*
X146621200Y-60601900D01*
X170065400Y-66719000D02*
X170763400Y-66021000D01*
X164234400Y-56218700D02*
X161971400Y-53955700D01*
X167457000Y-56218700D02*
X164234400Y-56218700D01*
X170763400Y-59525100D02*
X167457000Y-56218700D01*
X170763400Y-66021000D02*
X170763400Y-59525100D01*
X171162600Y-66021000D02*
X172837300Y-67695700D01*
X170763400Y-66021000D02*
X171162600Y-66021000D01*
X190208800Y-81227500D02*
X190324000Y-81227500D01*
X181226100Y-72244800D02*
X190208800Y-81227500D01*
X181226100Y-70810500D02*
X181226100Y-72244800D01*
X180571300Y-70810500D02*
X181226100Y-70810500D01*
X179237000Y-69476200D02*
X180571300Y-70810500D01*
X182970500Y-69066100D02*
X182970500Y-61339500D01*
X181226100Y-70810500D02*
X182970500Y-69066100D01*
X155186800Y-74474100D02*
X159170900Y-70490000D01*
X150570500Y-74474100D02*
X155186800Y-74474100D01*
X176735400Y-68846200D02*
X177140800Y-69251600D01*
X176735400Y-66468900D02*
X176735400Y-68846200D01*
%TO.N,Net-(D1-A)*%
X158227800Y-63376000D02*
X158227700Y-63376000D01*
X158227800Y-64561800D02*
X158227800Y-63376000D01*
X161055000Y-67389000D02*
X158227800Y-64561800D01*
X165216600Y-67389000D02*
X161055000Y-67389000D01*
X165216600Y-73075200D02*
X165216600Y-67389000D01*
X165221200Y-73079800D02*
X165216600Y-73075200D01*
X169101500Y-60865700D02*
X169756100Y-60211100D01*
X168799300Y-60865700D02*
X169101500Y-60865700D01*
X165216600Y-64448400D02*
X168799300Y-60865700D01*
X165216600Y-67389000D02*
X165216600Y-64448400D01*
X159871100Y-55368000D02*
X157932400Y-53429300D01*
X159871100Y-59229900D02*
X159871100Y-55368000D01*
X162786300Y-62145100D02*
X159871100Y-59229900D01*
X163310400Y-62145100D02*
X162786300Y-62145100D01*
X163793800Y-61661700D02*
X163310400Y-62145100D01*
X163793800Y-59320600D02*
X163793800Y-61661700D01*
X165279100Y-57835300D02*
X163793800Y-59320600D01*
X165768900Y-57835300D02*
X165279100Y-57835300D01*
X168799300Y-60865700D02*
X165768900Y-57835300D01*
X189503900Y-55779900D02*
X189503900Y-63471200D01*
X186091700Y-52367700D02*
X189503900Y-55779900D01*
X184307500Y-52367700D02*
X186091700Y-52367700D01*
X178100300Y-52367700D02*
X176197900Y-50465300D01*
X184307500Y-52367700D02*
X178100300Y-52367700D01*
%TO.N,Net-(D10-K)*%
X157247700Y-66558800D02*
X164159400Y-73470500D01*
X157247700Y-63260300D02*
X157247700Y-66558800D01*
X154650300Y-60662900D02*
X157247700Y-63260300D01*
X152754100Y-62559100D02*
X154650300Y-60662900D01*
X150577300Y-62559100D02*
X152754100Y-62559100D01*
X150577300Y-65430300D02*
X150577300Y-62559100D01*
X142819300Y-57905400D02*
X142186500Y-57272600D01*
X142819300Y-58188900D02*
X142819300Y-57905400D01*
X143909500Y-59279100D02*
X142819300Y-58188900D01*
X147297300Y-59279100D02*
X143909500Y-59279100D01*
X150577300Y-62559100D02*
X147297300Y-59279100D01*
%TO.N,Net-(D100-A)*%
X182379900Y-79509300D02*
X190637400Y-87766800D01*
X182379900Y-75452100D02*
X182379900Y-79509300D01*
X178920700Y-75452100D02*
X175628500Y-72159900D01*
X182379900Y-75452100D02*
X178920700Y-75452100D01*
X175628500Y-71303300D02*
X173730700Y-69405500D01*
X175628500Y-72159900D02*
X175628500Y-71303300D01*
X171664500Y-73250400D02*
X170871400Y-72457300D01*
X174538000Y-73250400D02*
X171664500Y-73250400D01*
X175628500Y-72159900D02*
X174538000Y-73250400D01*
X179572600Y-65550600D02*
X169398900Y-55376900D01*
X179572600Y-67084500D02*
X179572600Y-65550600D01*
X170871400Y-72986900D02*
X170871400Y-72457300D01*
X168775900Y-75082400D02*
X170871400Y-72986900D01*
X150320600Y-75082400D02*
X168775900Y-75082400D01*
X145549000Y-70310800D02*
X150320600Y-75082400D01*
X145549000Y-63974100D02*
X145549000Y-70310800D01*
%TO.N,Net-(D105-K)*%
X156169400Y-69264200D02*
X156169400Y-63251600D01*
X155404400Y-70029200D02*
X156169400Y-69264200D01*
X155404400Y-71013600D02*
X153720000Y-72698000D01*
X155404400Y-70029200D02*
X155404400Y-71013600D01*
X156279600Y-54263000D02*
X156167800Y-54263000D01*
X159281400Y-57264800D02*
X156279600Y-54263000D01*
X159281400Y-61478900D02*
X159281400Y-57264800D01*
X184492600Y-71897700D02*
X184492600Y-62411300D01*
X183111200Y-73279100D02*
X184492600Y-71897700D01*
%TD*%
M02*
